<mxfile host="65bd71144e">
    <diagram id="YUnte99SxxVP0t-3BkZa" name="Страница 1">
        <mxGraphModel dx="758" dy="518" grid="1" gridSize="15" guides="1" tooltips="1" connect="1" arrows="1" fold="1" page="1" pageScale="1" pageWidth="827" pageHeight="1169" math="0" shadow="0">
            <root>
                <mxCell id="0"/>
                <mxCell id="1" parent="0"/>
                <mxCell id="4" value="" style="edgeStyle=none;html=1;strokeWidth=1;fontSize=18;" edge="1" parent="1" source="2" target="3">
                    <mxGeometry relative="1" as="geometry"/>
                </mxCell>
                <mxCell id="2" value="Start" style="ellipse;whiteSpace=wrap;html=1;strokeWidth=1;fontSize=18;" vertex="1" parent="1">
                    <mxGeometry x="280" width="80" height="45" as="geometry"/>
                </mxCell>
                <mxCell id="7" value="" style="edgeStyle=none;html=1;fontSize=18;strokeWidth=1;" edge="1" parent="1" source="3" target="6">
                    <mxGeometry relative="1" as="geometry"/>
                </mxCell>
                <mxCell id="3" value="arr = [ ]&lt;br style=&quot;font-size: 18px&quot;&gt;i = 0&lt;br style=&quot;font-size: 18px&quot;&gt;size = length(arr)&lt;br style=&quot;font-size: 18px&quot;&gt;res = [size]" style="whiteSpace=wrap;html=1;strokeWidth=1;fontSize=18;" vertex="1" parent="1">
                    <mxGeometry x="225" y="62" width="195" height="88" as="geometry"/>
                </mxCell>
                <mxCell id="9" value="" style="edgeStyle=none;html=1;fontSize=18;strokeWidth=1;" edge="1" parent="1" source="6" target="8">
                    <mxGeometry relative="1" as="geometry"/>
                </mxCell>
                <mxCell id="18" style="edgeStyle=none;html=1;fontSize=18;strokeWidth=1;" edge="1" parent="1" source="6" target="21">
                    <mxGeometry relative="1" as="geometry">
                        <mxPoint x="540" y="202.5" as="targetPoint"/>
                    </mxGeometry>
                </mxCell>
                <mxCell id="6" value="i &amp;lt; size" style="rhombus;whiteSpace=wrap;html=1;fontSize=18;strokeWidth=1;" vertex="1" parent="1">
                    <mxGeometry x="267.5" y="174" width="107.5" height="60" as="geometry"/>
                </mxCell>
                <mxCell id="11" value="" style="edgeStyle=none;html=1;fontSize=18;strokeWidth=1;" edge="1" parent="1" source="8" target="10">
                    <mxGeometry relative="1" as="geometry"/>
                </mxCell>
                <mxCell id="15" style="edgeStyle=none;html=1;fontSize=18;strokeWidth=1;" edge="1" parent="1" source="8">
                    <mxGeometry relative="1" as="geometry">
                        <mxPoint x="120" y="304" as="targetPoint"/>
                    </mxGeometry>
                </mxCell>
                <mxCell id="8" value="lenght.arr(i) &amp;lt;= 3" style="rhombus;whiteSpace=wrap;html=1;fontSize=18;strokeWidth=1;" vertex="1" parent="1">
                    <mxGeometry x="215" y="264" width="210" height="80" as="geometry"/>
                </mxCell>
                <mxCell id="13" value="" style="edgeStyle=none;html=1;fontSize=18;strokeWidth=1;" edge="1" parent="1" source="10" target="12">
                    <mxGeometry relative="1" as="geometry"/>
                </mxCell>
                <mxCell id="10" value="res(i) = arr(i)" style="whiteSpace=wrap;html=1;fontSize=18;strokeWidth=1;" vertex="1" parent="1">
                    <mxGeometry x="260" y="381" width="120" height="60" as="geometry"/>
                </mxCell>
                <mxCell id="14" style="edgeStyle=none;html=1;entryX=0;entryY=0.5;entryDx=0;entryDy=0;fontSize=18;strokeWidth=1;" edge="1" parent="1" source="12" target="6">
                    <mxGeometry relative="1" as="geometry">
                        <Array as="points">
                            <mxPoint x="120" y="512"/>
                            <mxPoint x="120" y="203"/>
                        </Array>
                    </mxGeometry>
                </mxCell>
                <mxCell id="12" value="i = i + 1" style="whiteSpace=wrap;html=1;fontSize=18;strokeWidth=1;" vertex="1" parent="1">
                    <mxGeometry x="260" y="482" width="120" height="60" as="geometry"/>
                </mxCell>
                <mxCell id="16" value="Yes" style="text;html=1;align=center;verticalAlign=middle;resizable=0;points=[];autosize=1;strokeColor=none;fillColor=none;fontSize=18;" vertex="1" parent="1">
                    <mxGeometry x="274" y="225" width="45" height="30" as="geometry"/>
                </mxCell>
                <mxCell id="17" value="Yes" style="text;html=1;align=center;verticalAlign=middle;resizable=0;points=[];autosize=1;strokeColor=none;fillColor=none;fontSize=18;" vertex="1" parent="1">
                    <mxGeometry x="272.5" y="344" width="45" height="30" as="geometry"/>
                </mxCell>
                <mxCell id="19" value="No" style="text;html=1;align=center;verticalAlign=middle;resizable=0;points=[];autosize=1;strokeColor=none;fillColor=none;fontSize=18;" vertex="1" parent="1">
                    <mxGeometry x="405" y="165" width="45" height="30" as="geometry"/>
                </mxCell>
                <mxCell id="20" value="No" style="text;html=1;align=center;verticalAlign=middle;resizable=0;points=[];autosize=1;strokeColor=none;fillColor=none;fontSize=18;" vertex="1" parent="1">
                    <mxGeometry x="165" y="270" width="45" height="30" as="geometry"/>
                </mxCell>
                <mxCell id="21" value="End" style="ellipse;whiteSpace=wrap;html=1;fontSize=18;strokeWidth=1;" vertex="1" parent="1">
                    <mxGeometry x="480" y="162.5" width="120" height="80" as="geometry"/>
                </mxCell>
            </root>
        </mxGraphModel>
    </diagram>
</mxfile>